<svg width="130" height="28" viewBox="0 0 130 28" fill="none" xmlns="http://www.w3.org/2000/svg">
<path d="M14.352 14.052C14.352 15.204 14.144 16.292 13.728 17.316C13.328 18.324 12.76 19.22 12.024 20.004C11.288 20.788 10.424 21.404 9.432 21.852C8.456 22.284 7.4 22.5 6.264 22.5H1.2V5.628H6.264C7.416 5.628 8.48 5.852 9.456 6.3C10.448 6.748 11.304 7.364 12.024 8.148C12.76 8.932 13.328 9.828 13.728 10.836C14.144 11.844 14.352 12.916 14.352 14.052ZM11.376 14.052C11.376 13.012 11.152 12.084 10.704 11.268C10.256 10.436 9.64 9.78 8.856 9.3C8.088 8.82 7.224 8.58 6.264 8.58H4.08V19.548H6.264C7.24 19.548 8.112 19.3 8.88 18.804C9.648 18.308 10.256 17.644 10.704 16.812C11.152 15.98 11.376 15.06 11.376 14.052ZM22.0727 22.812C20.9207 22.812 19.9047 22.564 19.0247 22.068C18.1607 21.556 17.4807 20.852 16.9847 19.956C16.5047 19.044 16.2647 17.988 16.2647 16.788C16.2647 14.676 16.7927 13.084 17.8487 12.012C18.9207 10.924 20.3287 10.38 22.0727 10.38C23.2087 10.38 24.2087 10.62 25.0727 11.1C25.9527 11.58 26.6407 12.3 27.1367 13.26C27.6327 14.204 27.8807 15.38 27.8807 16.788C27.8807 17.988 27.6327 19.044 27.1367 19.956C26.6407 20.852 25.9527 21.556 25.0727 22.068C24.2087 22.564 23.2087 22.812 22.0727 22.812ZM22.0727 20.052C22.7287 20.052 23.2807 19.9 23.7287 19.596C24.1927 19.276 24.5367 18.868 24.7607 18.372C25.0007 17.876 25.1207 17.348 25.1207 16.788C25.1207 15.78 24.8567 14.924 24.3287 14.22C23.8167 13.5 23.0647 13.14 22.0727 13.14C21.1127 13.14 20.3607 13.484 19.8167 14.172C19.2887 14.86 19.0247 15.732 19.0247 16.788C19.0247 17.364 19.1447 17.9 19.3847 18.396C19.6247 18.892 19.9687 19.292 20.4167 19.596C20.8807 19.9 21.4327 20.052 22.0727 20.052ZM40.1428 22.5H37.2628V21.564C37.0708 21.948 36.7028 22.236 36.1588 22.428C35.6308 22.62 35.0228 22.716 34.3348 22.716C33.6628 22.716 33.0068 22.628 32.3668 22.452C31.7428 22.26 31.2308 21.988 30.8308 21.636C29.8388 20.74 29.3428 19.412 29.3428 17.652V10.5H32.2228V17.652C32.2228 18.468 32.4628 19.06 32.9428 19.428C33.4388 19.78 34.0548 19.956 34.7908 19.956C35.1588 19.956 35.5348 19.876 35.9188 19.716C36.3028 19.556 36.6228 19.308 36.8788 18.972C37.1348 18.636 37.2628 18.196 37.2628 17.652V10.5H40.1428V22.5ZM53.1278 16.284C53.1278 17.132 53.0158 17.956 52.7918 18.756C52.5838 19.556 52.2558 20.268 51.8078 20.892C51.3598 21.5 50.7838 21.964 50.0798 22.284C49.6158 22.492 49.0718 22.588 48.4478 22.572C47.8238 22.572 47.2318 22.484 46.6718 22.308C46.1278 22.116 45.7118 21.86 45.4238 21.54V22.5H42.5438V5.7H45.4238V10.908C45.7278 10.684 46.1278 10.532 46.6238 10.452C47.1198 10.372 47.5438 10.332 47.8958 10.332C49.0318 10.332 49.9838 10.604 50.7518 11.148C51.5358 11.676 52.1278 12.388 52.5278 13.284C52.9278 14.18 53.1278 15.18 53.1278 16.284ZM50.2238 16.284C50.2238 15.404 49.9918 14.716 49.5278 14.22C49.0798 13.708 48.4878 13.396 47.7518 13.284C47.0318 13.172 46.2558 13.284 45.4238 13.62V19.14C46.2718 19.652 47.0558 19.868 47.7758 19.788C48.5118 19.692 49.1038 19.348 49.5518 18.756C49.9998 18.148 50.2238 17.324 50.2238 16.284ZM57.9394 22.5H55.0594V5.7H57.9394V22.5ZM71.5888 17.604H63.1888C63.2528 18.324 63.5248 18.876 64.0048 19.26C64.4848 19.644 65.0768 19.868 65.7808 19.932C66.4848 19.98 67.2048 19.884 67.9408 19.644C68.6928 19.388 69.3648 19.004 69.9568 18.492L71.5408 20.676C70.6608 21.412 69.7648 21.94 68.8528 22.26C67.9568 22.564 67.0688 22.716 66.1888 22.716C64.1568 22.716 62.6288 22.148 61.6048 21.012C60.5968 19.876 60.0928 18.268 60.0928 16.188C60.0928 15.004 60.3248 13.972 60.7888 13.092C61.2688 12.212 61.9408 11.532 62.8048 11.052C63.6848 10.572 64.7168 10.34 65.9008 10.356C68.4928 10.388 70.2208 11.404 71.0848 13.404C71.3248 13.98 71.4768 14.612 71.5408 15.3C71.6208 15.988 71.6368 16.756 71.5888 17.604ZM66.1648 13.044C65.1888 13.044 64.4448 13.308 63.9328 13.836C63.4368 14.364 63.1888 14.948 63.1888 15.588H69.1168C69.1168 14.932 68.8608 14.348 68.3488 13.836C67.8528 13.308 67.1248 13.044 66.1648 13.044ZM90.8946 22.764C89.7426 22.764 88.6786 22.54 87.7026 22.092C86.7266 21.628 85.8626 21.02 85.1106 20.268C84.3586 19.5 83.7666 18.604 83.3346 17.58C82.9026 16.54 82.6866 15.388 82.6866 14.124C82.6866 12.892 82.9026 11.756 83.3346 10.716C83.7826 9.66 84.3746 8.74 85.1106 7.956C85.8466 7.188 86.7026 6.58 87.6786 6.132C88.6706 5.684 89.7426 5.46 90.8946 5.46C92.1106 5.46 93.2706 5.74 94.3746 6.3C95.4786 6.844 96.5026 7.692 97.4466 8.844L95.1186 10.764C94.4626 9.948 93.7826 9.364 93.0786 9.012C92.3746 8.644 91.6466 8.46 90.8946 8.46C90.1746 8.46 89.5026 8.604 88.8786 8.892C88.2706 9.18 87.7186 9.58 87.2226 10.092C86.7426 10.588 86.3666 11.18 86.0946 11.868C85.8226 12.54 85.6866 13.292 85.6866 14.124C85.6866 14.956 85.8226 15.708 86.0946 16.38C86.3666 17.036 86.7426 17.62 87.2226 18.132C87.7026 18.644 88.2546 19.044 88.8786 19.332C89.5026 19.62 90.1746 19.764 90.8946 19.764C91.6466 19.764 92.3746 19.588 93.0786 19.236C93.7826 18.868 94.4626 18.276 95.1186 17.46L97.4466 19.38C96.5026 20.532 95.4786 21.388 94.3746 21.948C93.2706 22.492 92.1106 22.764 90.8946 22.764ZM111.35 22.5L109.838 20.868C108.798 21.652 107.774 22.164 106.766 22.404C105.758 22.644 104.806 22.676 103.91 22.5C103.014 22.308 102.222 21.956 101.534 21.444C100.846 20.932 100.31 20.324 99.9261 19.62C99.5421 18.9 99.3581 18.132 99.3741 17.316C99.3901 16.5 99.6461 15.692 100.142 14.892C100.654 14.076 101.462 13.332 102.566 12.66L101.822 11.652C101.39 10.98 101.182 10.284 101.198 9.564C101.214 8.828 101.406 8.148 101.774 7.524C102.158 6.9 102.67 6.396 103.31 6.012C103.966 5.612 104.694 5.412 105.494 5.412C106.79 5.412 107.782 5.684 108.47 6.228C109.158 6.772 109.71 7.612 110.126 8.748L107.558 9.66C107.35 9.02 107.094 8.588 106.79 8.364C106.486 8.124 106.054 8.012 105.494 8.028C105.142 8.028 104.83 8.164 104.558 8.436C104.286 8.692 104.11 8.996 104.03 9.348C103.95 9.7 104.014 10.02 104.222 10.308L109.718 16.812C109.814 16.364 109.886 15.852 109.934 15.276C109.998 14.7 109.998 14.004 109.934 13.188H112.478C112.51 14.42 112.478 15.5 112.382 16.428C112.286 17.34 112.014 18.172 111.566 18.924L114.854 22.5H111.35ZM108.11 18.972L104.03 14.364C103.214 15.004 102.686 15.66 102.446 16.332C102.206 17.004 102.19 17.628 102.398 18.204C102.622 18.764 103.014 19.204 103.574 19.524C104.134 19.844 104.806 19.98 105.59 19.932C106.39 19.868 107.23 19.548 108.11 18.972ZM117.005 22.5V5.7H123.389C124.269 5.7 125.037 5.924 125.693 6.372C126.349 6.804 126.853 7.38 127.205 8.1C127.573 8.82 127.757 9.604 127.757 10.452C127.757 10.964 127.677 11.492 127.517 12.036C127.357 12.58 127.117 13.084 126.797 13.548C127.341 13.996 127.765 14.556 128.069 15.228C128.373 15.9 128.525 16.62 128.525 17.388C128.525 18.012 128.405 18.628 128.165 19.236C127.941 19.844 127.621 20.396 127.205 20.892C126.805 21.372 126.333 21.764 125.789 22.068C125.261 22.356 124.693 22.5 124.085 22.5H117.005ZM119.957 12.66H123.317C123.605 12.66 123.861 12.548 124.085 12.324C124.309 12.1 124.485 11.82 124.613 11.484C124.757 11.148 124.829 10.804 124.829 10.452C124.829 9.988 124.701 9.58 124.445 9.228C124.189 8.876 123.837 8.7 123.389 8.7H119.957V12.66ZM119.957 19.5H124.085C124.341 19.5 124.581 19.396 124.805 19.188C125.029 18.964 125.213 18.692 125.357 18.372C125.501 18.052 125.573 17.724 125.573 17.388C125.573 16.876 125.437 16.444 125.165 16.092C124.909 15.724 124.573 15.54 124.157 15.54H119.957V19.5Z" fill="black"/>
</svg>
